<svg id="Ebene_1" data-name="Ebene 1" xmlns="http://www.w3.org/2000/svg" viewBox="0 0 134.89 36.97"><defs><style>.cls-1,.cls-2{fill:#686867;}.cls-2{stroke:#686867;stroke-miterlimit:10;stroke-width:0.2px;}.cls-3{fill:#595957;}.cls-4{fill:#4681cf;}</style></defs><title>Logo-MVB</title><path class="cls-1" d="M7,30.3l6.82-10.66H7.6v-.72h7.27v.49L8,30.07h6.9v.72H7Z" transform="translate(-6.77 -4.37)"/><path class="cls-1" d="M16.07,26.48c0-2.83,1.84-4.56,3.76-4.56s3.31,1.46,3.31,4a4,4,0,0,1,0,.65H16.88c0,2.18,1.31,3.75,3.26,3.75a3.83,3.83,0,0,0,2.32-.77l.32.61a4.82,4.82,0,0,1-2.72.85C17.86,31,16.07,29.31,16.07,26.48Zm6.32-.56c0-2.21-1-3.31-2.54-3.31s-2.79,1.24-3,3.31Z" transform="translate(-6.77 -4.37)"/><path class="cls-1" d="M25.31,22.15H26l.07,1.33h.05a4.22,4.22,0,0,1,3-1.55c1.78,0,2.61,1.08,2.61,3.31v5.55h-.79V25.35c0-1.84-.58-2.7-2-2.7-1,0-1.76.54-2.83,1.62v6.52h-.79Z" transform="translate(-6.77 -4.37)"/><path class="cls-1" d="M34.9,28.39V22.83H33.55v-.61l1.37-.07.11-2.5h.68v2.5h2.5v.68h-2.5v5.64c0,1.1.27,1.84,1.46,1.84A2.9,2.9,0,0,0,38.25,30l.22.65a4.83,4.83,0,0,1-1.4.32C35.39,31,34.9,29.94,34.9,28.39Z" transform="translate(-6.77 -4.37)"/><path class="cls-1" d="M40.14,22.15h.68l.07,1.6h.05a3,3,0,0,1,2.45-1.82,1.78,1.78,0,0,1,.86.18l-.18.72a1.89,1.89,0,0,0-.79-.14c-.77,0-1.69.59-2.36,2.21v5.89h-.79Z" transform="translate(-6.77 -4.37)"/><path class="cls-1" d="M45.54,27.69V22.15h.79v5.44c0,1.84.58,2.7,2,2.7,1,0,1.78-.54,2.79-1.76V22.15h.79v8.64h-.67l-.09-1.44h0A3.86,3.86,0,0,1,48.15,31C46.37,31,45.54,29.92,45.54,27.69Z" transform="translate(-6.77 -4.37)"/><path class="cls-1" d="M55,22.15h.68l.07,1.33h.05a4,4,0,0,1,2.72-1.55,2.25,2.25,0,0,1,2.39,1.76,4.34,4.34,0,0,1,2.94-1.76c1.73,0,2.59,1.08,2.59,3.31v5.55h-.81V25.35c0-1.84-.61-2.7-1.93-2.7a3.77,3.77,0,0,0-2.59,1.62v6.52h-.79V25.35c0-1.84-.61-2.7-1.94-2.7a3.84,3.84,0,0,0-2.59,1.62v6.52H55Z" transform="translate(-6.77 -4.37)"/><path class="cls-2" d="M72,26.81h-.59V26.5l.59,0v-1c0-.85.39-1.3,1.07-1.3a1.61,1.61,0,0,1,.63.14l-.11.32a1.17,1.17,0,0,0-.52-.13c-.46,0-.67.35-.67,1v.94h1v.34h-1v4H72Z" transform="translate(-6.77 -4.37)"/><path class="cls-2" d="M74.11,29.24V26.47h.4v2.72c0,.92.29,1.35,1,1.35.51,0,.89-.27,1.4-.88V26.47h.4v4.32h-.33l0-.72h0a1.93,1.93,0,0,1-1.47.83C74.53,30.9,74.11,30.36,74.11,29.24Zm.49-4.17a.33.33,0,1,1,.33.33A.33.33,0,0,1,74.6,25.07Zm1.6,0a.33.33,0,1,1,.33.33A.33.33,0,0,1,76.2,25.07Z" transform="translate(-6.77 -4.37)"/><path class="cls-2" d="M78.84,26.47h.34l0,.8h0a1.48,1.48,0,0,1,1.22-.91.89.89,0,0,1,.43.09l-.09.36a.94.94,0,0,0-.4-.07c-.39,0-.85.3-1.18,1.11v2.94h-.4Z" transform="translate(-6.77 -4.37)"/><path class="cls-1" d="M84.89,29.22l.54-.58a4.67,4.67,0,0,0,3.47,1.6c1.82,0,3-1,3-2.38s-1-2-2.12-2.48l-1.8-.81c-1-.45-2.41-1.19-2.41-3S87,18.71,89,18.71a4.51,4.51,0,0,1,3.29,1.42l-.47.54A3.84,3.84,0,0,0,89,19.46c-1.57,0-2.63.83-2.63,2.12s1.19,1.89,2.05,2.29l1.8.79c1.33.59,2.5,1.33,2.5,3.15S91.21,31,88.91,31A5.27,5.27,0,0,1,84.89,29.22Z" transform="translate(-6.77 -4.37)"/><path class="cls-1" d="M94.2,26.48c0-2.9,1.8-4.56,3.87-4.56S102,23.59,102,26.48,100.16,31,98.07,31,94.2,29.35,94.2,26.48Zm6.93,0c0-2.29-1.31-3.85-3.06-3.85s-3,1.57-3,3.85,1.3,3.82,3,3.82S101.13,28.75,101.13,26.48Z" transform="translate(-6.77 -4.37)"/><path class="cls-1" d="M103.2,30.36l5.11-7.53h-4.56v-.68h5.58v.41l-5.1,7.53h5.28v.7H103.2Z" transform="translate(-6.77 -4.37)"/><path class="cls-1" d="M111.15,19.35a.72.72,0,1,1,.72.7A.69.69,0,0,1,111.15,19.35Zm.31,2.79h.79v8.64h-.79Z" transform="translate(-6.77 -4.37)"/><path class="cls-1" d="M114.79,28.63c0-1.91,1.73-2.83,5.58-3.26,0-1.31-.34-2.74-2.05-2.74a4.87,4.87,0,0,0-2.75,1L115.2,23a5.83,5.83,0,0,1,3.22-1.12c2,0,2.74,1.48,2.74,3.33v5.53h-.68l-.07-1.12h-.05A5.13,5.13,0,0,1,117.29,31,2.26,2.26,0,0,1,114.79,28.63Zm5.58.29V26c-3.56.41-4.77,1.24-4.77,2.61a1.63,1.63,0,0,0,1.84,1.73A4.56,4.56,0,0,0,120.37,28.92Z" transform="translate(-6.77 -4.37)"/><path class="cls-1" d="M124.06,29.64V17.84h.79v11.9c0,.38.16.56.38.56a1.41,1.41,0,0,0,.32,0l.14.65a1.68,1.68,0,0,1-.58.09C124.42,31,124.06,30.57,124.06,29.64Z" transform="translate(-6.77 -4.37)"/><path class="cls-1" d="M127.42,26.48c0-2.83,1.84-4.56,3.76-4.56s3.31,1.46,3.31,4a4,4,0,0,1,0,.65h-6.23c0,2.18,1.31,3.75,3.26,3.75a3.83,3.83,0,0,0,2.32-.77l.32.61a4.82,4.82,0,0,1-2.72.85C129.21,31,127.42,29.31,127.42,26.48Zm6.32-.56c0-2.21-1-3.31-2.54-3.31s-2.79,1.24-3,3.31Z" transform="translate(-6.77 -4.37)"/><path class="cls-1" d="M135.58,29.82l.47-.59a4,4,0,0,0,2.75,1.1c1.35,0,2.05-.79,2.05-1.71,0-1.08-1.12-1.55-2.11-1.91-1.31-.47-2.75-1-2.75-2.47,0-1.26,1-2.3,2.79-2.3a4,4,0,0,1,2.47.9l-.43.56a3.27,3.27,0,0,0-2.07-.77c-1.33,0-1.94.77-1.94,1.57,0,1,1,1.37,2,1.75,1.35.5,2.83,1,2.83,2.65,0,1.3-1,2.43-2.92,2.43A5,5,0,0,1,135.58,29.82Z" transform="translate(-6.77 -4.37)"/><path class="cls-3" d="M11.69,35.7v.24l-.46,0v3.77l.46,0V40H10.13v-.25l.46,0V36h0L9.24,40H8.94L7.54,36h0v3.75l.43,0V40H6.77v-.25l.4,0V36l-.4,0V35.7H8.12L9.23,39h0l1.08-3.3Z" transform="translate(-6.77 -4.37)"/><path class="cls-3" d="M13.26,39.05c0,.41.11.63.56.63a.77.77,0,0,0,.81-.84v-1.6l-.42,0V37l1,0v2.81l.4,0V40h-.9l0-.53h0a1.16,1.16,0,0,1-1,.59c-.66,0-1-.33-1-1.05v-1.8l-.41,0V37l1,0Zm0-3.42a.31.31,0,0,1,.34.33.34.34,0,1,1-.34-.33Zm1.21,0a.31.31,0,0,1,.34.33.31.31,0,0,1-.33.34.31.31,0,0,1-.34-.34A.32.32,0,0,1,14.45,35.63Z" transform="translate(-6.77 -4.37)"/><path class="cls-3" d="M18.61,37.26H17.09v2c0,.34.08.48.32.48s.37-.11.48-.49l.24.06c-.12.53-.37.78-.9.78a.65.65,0,0,1-.72-.73V37.26H16V37h.46v-.8l.45-.12h.14V37h1.52v-.8l.45-.12h.14V37h.68v.3H19.2v2c0,.34.08.48.32.48s.37-.11.48-.49l.24.06c-.12.53-.37.78-.9.78a.65.65,0,0,1-.72-.73Z" transform="translate(-6.77 -4.37)"/><path class="cls-3" d="M22.15,36.89c.74,0,1.2.43,1.2,1.34,0,.08,0,.17,0,.26h-2c0,.76.22,1.24.86,1.24A.78.78,0,0,0,23,39.2l.27.09a1.16,1.16,0,0,1-1.2.81c-.94,0-1.39-.63-1.39-1.57A1.46,1.46,0,0,1,22.15,36.89Zm.59,1.28V38c0-.56-.19-.85-.61-.85s-.73.45-.77,1Z" transform="translate(-6.77 -4.37)"/><path class="cls-3" d="M25.65,39.78V40H24v-.25l.4,0V37.25l-.4,0V37l.89,0,0,.54h0a1,1,0,0,1,.89-.58.58.58,0,0,1,.63.58c0,.33-.17.48-.43.48a.37.37,0,0,1-.4-.42l.2-.08a.31.31,0,0,0,0-.07c0-.11-.09-.15-.2-.15A.83.83,0,0,0,25,38v1.73Z" transform="translate(-6.77 -4.37)"/><path class="cls-3" d="M27.06,38h1.47v.49H27.06Z" transform="translate(-6.77 -4.37)"/><path class="cls-3" d="M31.62,39.05c0,.41.11.63.56.63a.77.77,0,0,0,.81-.84v-1.6l-.42,0V37l1,0v2.81l.4,0V40h-.9l0-.53h0a1.16,1.16,0,0,1-1,.59c-.66,0-1-.33-1-1.05v-1.8l-.41,0V37l1,0Z" transform="translate(-6.77 -4.37)"/><path class="cls-3" d="M35.5,36.92l0,.59h0a1.22,1.22,0,0,1,1.08-.63c.66,0,.94.33.94,1.05v1.8l.41,0V40H36.59v-.25l.41,0v-1.8c0-.41-.09-.64-.57-.64a.77.77,0,0,0-.82.79v1.65l.42,0V40H34.61v-.25l.4,0V37.25l-.4,0V37Z" transform="translate(-6.77 -4.37)"/><path class="cls-3" d="M41.38,39.74l.43,0V40h-1l0-.46a1.09,1.09,0,0,1-1,.53c-.81,0-1.21-.61-1.21-1.55s.51-1.67,1.33-1.67a1.1,1.1,0,0,1,.86.34V35.71l-.5,0v-.24l1.08,0Zm-.59-.81v-1a.66.66,0,0,0-.19-.5.74.74,0,0,0-.55-.21c-.62,0-.8.51-.8,1.29,0,.61.11,1.23.74,1.23A.79.79,0,0,0,40.79,38.94Z" transform="translate(-6.77 -4.37)"/><path class="cls-3" d="M46.94,36l-.55,0V35.7h1.28v.25l-.4,0-1.49,4.1h-.25L44,36l-.42,0V35.7h1.73v.25l-.61,0,1.09,3.12h0Z" transform="translate(-6.77 -4.37)"/><path class="cls-3" d="M49.58,38.41V38c0-.54-.13-.84-.62-.84-.19,0-.52,0-.52.26a.45.45,0,0,0,0,.08h.2a1,1,0,0,1,0,.22.32.32,0,0,1-.35.33.34.34,0,0,1-.36-.38c0-.45.46-.77,1.07-.77.77,0,1.12.3,1.12,1.17v1.41c0,.27,0,.35.19.35a.62.62,0,0,0,.2,0l.06.21a1,1,0,0,1-.45.11c-.32,0-.51-.12-.56-.44a1.07,1.07,0,0,1-.91.45c-.48,0-.87-.21-.87-.79s.55-.9,1.32-.9Zm-1.11-2.78a.31.31,0,0,1,.34.33.34.34,0,1,1-.34-.33Zm1.11,3.55v-.51h-.35c-.56,0-.75.24-.75.6s.11.49.44.49A.61.61,0,0,0,49.58,39.18Zm.1-3.55A.31.31,0,0,1,50,36a.34.34,0,1,1-.34-.33Z" transform="translate(-6.77 -4.37)"/><path class="cls-3" d="M51.32,37.26h-.46V37h.46v-.8l.45-.12h.14V37h.68v.3h-.68v2c0,.34.08.48.32.48s.37-.11.48-.49l.24.06c-.12.53-.37.78-.9.78a.65.65,0,0,1-.72-.73Z" transform="translate(-6.77 -4.37)"/><path class="cls-3" d="M54.87,36.89c.74,0,1.2.43,1.2,1.34,0,.08,0,.17,0,.26h-2c0,.76.22,1.24.86,1.24a.78.78,0,0,0,.81-.53l.27.09a1.16,1.16,0,0,1-1.2.81c-.94,0-1.39-.63-1.39-1.57A1.46,1.46,0,0,1,54.87,36.89Zm.59,1.28V38c0-.56-.19-.85-.61-.85s-.73.45-.77,1Z" transform="translate(-6.77 -4.37)"/><path class="cls-3" d="M58.36,39.78V40H56.7v-.25l.4,0V37.25l-.4,0V37l.89,0,0,.54h0a1,1,0,0,1,.89-.58.58.58,0,0,1,.63.58c0,.33-.17.48-.43.48a.37.37,0,0,1-.4-.42l.2-.08a.31.31,0,0,0,0-.07c0-.11-.09-.15-.2-.15a.83.83,0,0,0-.67.79v1.73Z" transform="translate(-6.77 -4.37)"/><path class="cls-3" d="M60.52,37.41a1.12,1.12,0,0,1,1-.52c.76,0,1.18.53,1.18,1.58s-.54,1.64-1.37,1.64a1.35,1.35,0,0,1-1-.34l-.24.33h-.17V35.7l-.4,0v-.24l1,0Zm.16.17a.8.8,0,0,0-.16.51V39a.78.78,0,0,0,.79.79c.58,0,.73-.45.73-1.28s-.14-1.25-.72-1.25A.78.78,0,0,0,60.68,37.57Z" transform="translate(-6.77 -4.37)"/><path class="cls-3" d="M64.85,36.89c.74,0,1.2.43,1.2,1.34,0,.08,0,.17,0,.26h-2c0,.76.22,1.24.86,1.24a.78.78,0,0,0,.81-.53l.27.09a1.16,1.16,0,0,1-1.2.81c-.94,0-1.39-.63-1.39-1.57A1.46,1.46,0,0,1,64.85,36.89Zm.59,1.28V38c0-.56-.19-.85-.61-.85s-.73.45-.77,1Z" transform="translate(-6.77 -4.37)"/><path class="cls-3" d="M68.34,39.78V40H66.68v-.25l.4,0V37.25l-.4,0V37l.89,0,0,.54h0a1,1,0,0,1,.89-.58.58.58,0,0,1,.63.58c0,.33-.17.48-.43.48a.37.37,0,0,1-.4-.42l.2-.08a.31.31,0,0,0,0-.07c0-.11-.09-.15-.2-.15a.83.83,0,0,0-.67.79v1.73Z" transform="translate(-6.77 -4.37)"/><path class="cls-3" d="M71.37,38.41V38c0-.54-.13-.84-.62-.84-.19,0-.52,0-.52.26a.45.45,0,0,0,0,.08h.2a1,1,0,0,1,0,.22.32.32,0,0,1-.35.33.34.34,0,0,1-.36-.38c0-.45.46-.77,1.07-.77.77,0,1.12.3,1.12,1.17v1.41c0,.27,0,.35.19.35a.62.62,0,0,0,.2,0l.06.21a1,1,0,0,1-.45.11c-.32,0-.51-.12-.56-.44a1.07,1.07,0,0,1-.91.45c-.48,0-.87-.21-.87-.79s.55-.9,1.32-.9Zm0,.77v-.51H71c-.56,0-.75.24-.75.6s.11.49.44.49A.61.61,0,0,0,71.37,39.18Z" transform="translate(-6.77 -4.37)"/><path class="cls-3" d="M73.11,37.26h-.46V37h.46v-.8l.45-.12h.14V37h.68v.3H73.7v2c0,.34.08.48.32.48s.37-.11.48-.49l.24.06c-.12.53-.37.78-.9.78a.65.65,0,0,1-.73-.73Z" transform="translate(-6.77 -4.37)"/><path class="cls-3" d="M76.1,39.05c0,.41.11.63.56.63a.77.77,0,0,0,.81-.84v-1.6l-.42,0V37l1,0v2.81l.4,0V40h-.9l0-.53h0a1.16,1.16,0,0,1-1,.59c-.66,0-1-.33-1-1.05v-1.8l-.41,0V37l1,0Z" transform="translate(-6.77 -4.37)"/><path class="cls-3" d="M80,36.92l0,.59h0a1.22,1.22,0,0,1,1.08-.63c.66,0,.94.33.94,1.05v1.8l.41,0V40H81.07v-.25l.41,0v-1.8c0-.41-.09-.64-.57-.64a.77.77,0,0,0-.82.79v1.65l.42,0V40H79.09v-.25l.4,0V37.25l-.4,0V37Z" transform="translate(-6.77 -4.37)"/><path class="cls-3" d="M85.57,36.75a.43.43,0,0,1,.19,0v.35l-.58.09a1,1,0,0,1,.32.76,1.08,1.08,0,0,1-1.16,1.12,1.5,1.5,0,0,1-.35,0c-.2.18-.29.28-.29.37s.08.13.25.13h.58c.71,0,1.25.11,1.25.81s-.39,1-1.57,1c-.94,0-1.26-.27-1.26-.67a.71.71,0,0,1,.43-.64.36.36,0,0,1-.22-.34c0-.28.25-.45.55-.71a.93.93,0,0,1-.59-.93,1.13,1.13,0,0,1,1.22-1.16,1.19,1.19,0,0,1,.66.17A.84.84,0,0,1,85.57,36.75Zm-2,3.38a.68.68,0,0,0-.15.42c0,.29.14.47.92.47.61,0,1-.12,1-.52s-.31-.37-.89-.37Zm.74-1.33c.32,0,.58-.2.58-.84s-.24-.81-.58-.81-.61.22-.61.82S84,38.81,84.33,38.81Z" transform="translate(-6.77 -4.37)"/><polygon class="cls-4" points="57.66 14.91 75.92 0 78.3 11.88 74.44 5.3 57.66 14.91"/></svg>