<?xml version="1.0" encoding="UTF-8" standalone="no"?>
<!-- Generator: Adobe Illustrator 26.0.1, SVG Export Plug-In . SVG Version: 6.00 Build 0)  -->

<svg
   version="1.1"
   id="Ebene_1"
   x="0px"
   y="0px"
   viewBox="0 0 617.4 483.1"
   style="enable-background:new 0 0 617.4 483.1;"
   xml:space="preserve"
   xmlns="http://www.w3.org/2000/svg"
   xmlns:svg="http://www.w3.org/2000/svg"><defs
   id="defs896" />
<style
   type="text/css"
   id="style824">
	.st0{fill:#FFFFFF;}
	.st1{enable-background:new    ;}
</style>
<g
   id="Gruppe_689">
	<path
   id="Pfad_1"
   class="st0"
   d="M617.4,177.5c-0.6,3.6-1.4,7.1-2.4,10.5c-2.9,12.2-7.1,24.5-9.9,36.9c-2.2,10-5.5,21-7.3,31.8   c-0.5,3.5-0.6,6.8-1,10.2c-0.3,2.4-1,4.8-1.3,7.3c0,2.4-0.6,4.8-1.7,6.9c-1.1-0.5-1.5-1.9-1.8-2.9c-1.3-3.5-2.8-7.2-4-10.7   c-10-29.3-20.8-58.3-30.4-88.3c-2-4.9-3.3-10-4-15.2c3.1-0.8,8.8,1.4,12.2,2.1c13,2.7,28,6.2,41.2,9   C610.8,175.8,614.8,175.4,617.4,177.5"
   style="fill:#231f1c;fill-opacity:1" />
	<path
   id="Pfad_2"
   class="st0"
   d="M573.6,359.8c0.9,1.7,1.4,3.6,1.6,5.6c-0.3,1.5-0.8,3-1.3,4.4c-0.2,2.2-0.8,4.4-1.7,6.5   c-1.1,7.7-3.3,15.4-4.9,23.1c-4,19.2-8,39-12.5,57.4c-0.5,3.7-1.6,7.2-3.3,10.5c-15.3-2.6-29.3-8.7-43.4-12.9   c-4.8-1.5-9.3-3.2-14-4.7c-3.3-1.1-6.8-1.6-10.2-2.8c-9.5-3.1-19.5-6-29.4-9.2c0.3-5.8,1.1-11.6,2.5-17.2c0.5-3,0.8-6.2,1.4-9.3   c0.6-2.9,1.2-6,1.6-9.1c1.7-11.8,3.9-24.4,6.2-36.7c0.7-3.5,1-8.2,2.4-9.2c0,0,0.1-0.1,0.2,0c1.4,0.3,3.3,3.5,4.4,4.9   c4,5.2,7.7,10.9,12,15.4c3.1,2.4,6.7,4.1,10.6,4.9c1.2,0.3,2.4,1,3.6,1.3c2.5,0.5,5,0.8,7.5,0.9c5.8,0.5,12.1,0,18.3,0   c9.3,0.1,18.4,0,24.5-3.5c2.5-1.5,4.9-3.3,7.1-5.3c2.3-1.7,4.6-3.5,6.7-5.4c1-1.6,1.9-3.2,2.8-4.9c0.9-1.7,2.3-3.1,3-4.6   c0.6-1.3,0.7-3.1,2.2-3.8C572.7,356.7,573.1,358.5,573.6,359.8"
   style="fill:#231f1c;fill-opacity:1" />
	<path
   id="Pfad_3"
   class="st0"
   d="M548.2,325.8c0.8,4.4,0.6,8.9-0.6,13.3c-1.6,3.5-3.4,6.9-5.4,10.2c-1.9,1.4-3.9,2.7-6,3.8   c-1.9,1.4-3.9,2.6-6,3.6c-1.6,0.6-3.7,0.9-5.7,1.4c-2.5,1-5.3,1.4-8,0.9c-2.2-0.9-4.2-2.2-5.8-3.8c-1.3-2.8-2.1-5.8-2.4-8.9   c-0.6-3.3-0.9-6.6-0.7-10c0.9-4.9,2.1-9.6,3.6-14.3c2.3-9,6.5-18.4,15.3-20.2c4.4-0.8,8.9,0.6,12,3.8c3.3,3.2,5.8,7.1,7.3,11.5   C546.8,320,547.6,322.9,548.2,325.8"
   style="fill:#231f1c;fill-opacity:1" />
	<path
   id="Pfad_4"
   class="st0"
   d="M546.9,278.9c1.5,3.7,2.5,7.5,2.9,11.5c-6.4-1.1-10.3-6.8-18-6.8c-2.7,0.3-5.4,0.9-8,1.6   c-7.5,1.4-14.8,3.6-21.8,6.8c-4.2,1.8-8.3,4-12.2,6.5c-2.3,1.9-4.5,3.9-6.6,6c-1.8,2.2-3.9,4.2-6.2,6c-0.2-3.1,0.2-6.1,1.1-9.1   c1.1-6.1,2.5-11.8,3.8-17.7c0.7-3,0.9-6.2,1.4-9.2c0.9-4.7,2.3-9.5,3.3-14.5c6.2-32.4,10.5-65.7,16-99.6c0.2-2.5,0.8-4.9,1.8-7.1   c2.1-0.8,5.7,0.5,8.9,1.3c2.7,0.6,5.7,1,8.2,1.6c5.2,1,10.4,2.3,15.4,4c-1.8,1.2-3.8,2.1-6,2.4c-4.2,1.1-8.9,2.1-13.4,3   c-2.1,0.2-4.2,1-5.8,2.4c0,1.8,0.5,3.6,1.4,5.3c7.2,24.2,15.8,47.8,22.9,71.8c1.1,3.8,2.4,7.5,3.6,11.3   C542.1,263.9,544.6,271.4,546.9,278.9"
   style="fill:#231f1c;fill-opacity:1" />
	<path
   id="Pfad_5"
   class="st0"
   d="M426.9,423.8c1,4.8,1.5,9.7,1.4,14.5c-5.3-0.1-10.6-0.5-15.8-1.3c-5.5-0.2-11.2-0.7-16.6-1.3   c-0.9-4.4-1.3-8.9-1.3-13.5c-0.2-2.9-1-6-1.4-9.1c-0.8-6.3-1.7-12.3-2.7-18.2c-0.5-3.1-0.5-6.3-1.1-9.3c-1.1-5.9-2.1-11.9-3.5-17.4   c-0.8-5.4-2.6-10.7-5.3-15.5c-8.1-2.5-16.5-3.3-24.9-2.4c-2.7,0.3-5.9,1.4-8.9,2c-6.6,1.1-12.5,4.6-16.7,9.8   c-0.6,0.8-0.9,2.1-1.4,3.1c-0.6,0.9-1.1,1.8-1.6,2.8c-0.9,4.7-1.4,9.5-1.4,14.3c-0.5,4.8,0.2,9.6,0.2,14.4   c0.2,7.3,0.8,14.6,1.8,21.8c0.9,4.8,1.4,9.8,1.3,14.7c-4,0.8-8.1,1.1-12.2,0.8c-3.8,0.2-7.6,0.1-11.4-0.4c-1.2-6.7-0.4-14-0.9-20.9   c-1.2-15.5-2.6-32.5-3.8-48.3c-1.2-15-2.6-29.9-3.1-44.9c4.8-1.1,9.8-1.7,14.7-1.9c0.9-0.2,1.9-0.2,2.9,0c1.1,0.6,2,3.5,2.4,4.4   c0.7,1.5,1.3,3.6,2.4,4.3c2.6,1.9,10.3,0.5,14-0.2c9.8-1.7,17.6-3,27-5.1c4.4-1.2,8.9-2,13.5-2.5c3.6-0.3,7.1,0.6,10,2.7   c1.8,0.9,3.5,1.9,5.1,3.1c3.1,2.4,5.9,5.1,8.4,8.1c1.2,1.6,2.1,3.7,3.3,5.5s2.4,3.3,3.4,5.1c2.1,3.8,3.9,7.7,5.5,11.7   c5.6,12.6,9.7,25.9,12.1,39.5C423.7,403.9,425.8,413.7,426.9,423.8"
   style="fill:#231f1c;fill-opacity:1" />
	<path
   id="Pfad_6"
   class="st0"
   d="M201.6,374.7c2.9,5.9,6.9,11.2,9.2,17.1c-8.6-8.1-16-18.2-24-27.5c-5.2-6.1-10.2-12.1-15.4-18.7   c-6.3-7.8-12.9-15.1-20-22.7c-1.3-1.3-3.6-3.5-3.8-4.7c-0.2-1.9,2.2-5.6,3.3-8c2-4.7,5.1-10.2,7.6-14.9c1.3-2.5,2.6-7.3,5.1-7.7   c4.7,9.6,8.7,19.5,12.6,29.6c0.9,2.4,2.3,4.6,3.2,7.1c4.6,12.1,10.8,24,15.8,36c1,2.4,2.2,4.7,3.3,7.1S200.5,372.5,201.6,374.7"
   style="fill:#231f1c;fill-opacity:1" />
	<path
   id="Pfad_7"
   class="st0"
   d="M188.3,435.3c1.5,1.6,2.7,3.4,3.5,5.4c-2.8,1.8-5.9,3.1-9.1,4c-9.2,3.6-18.9,6.9-28.5,10.2   c-12.9,4.5-25.5,9.5-38,13.8c-1.1,0.3-2.1,0.9-2.9,1.7c-2.6,0.4-5.1,1.3-7.4,2.5c-3.5,1.3-6.5,2.4-10.2,4c-1.4,0.9-3,1.5-4.6,2   c-1.6-0.2-2.4-2.8-3.1-4.2c-0.9-1.7-1.5-3.4-1.8-5.3c1.1-0.7,2.4-1.1,3.6-1.3c4.7-1.2,9.5-2.2,14.4-2.8c7.2-0.9,15.1-2.2,22.4-3.6   c0-4.1-0.6-8.1-1.6-12c-2-9.6-3.3-19.3-5.6-28.9c-1.7-7-2.6-14.7-4.2-21.8c-0.7-3.2-1.2-6.5-1.5-9.8c-0.2-2.8-1.7-5.5-2.1-8.4   c-0.8-3.7-1-7.5-0.8-11.3c3.1-1.4,6.6-1.8,10-1.3c1.9,1.1,3.6,2.4,5.1,4c1.7,1.6,3.6,2.8,4.9,4c6.6,6,12,11.7,18.4,17.7   c3.2,2.9,6.5,5.6,9.3,8.5c6,6.1,11.2,12.7,17.1,18.7C179.8,425.8,184.2,430.3,188.3,435.3"
   style="fill:#231f1c;fill-opacity:1" />
	<path
   id="Pfad_8"
   class="st0"
   d="M143.7,243.7c-0.6,2.8-1.7,5.6-3.3,8c-3.6,7.4-7.9,15.7-11.1,22.3c-3.6,7.6-7.3,15.1-11.4,22.2   c-1.3,2.2-2.2,5.1-4.4,6.4c-1.7-5.7-2.3-11.7-3.5-17.5s-2-11.8-3.2-17.6c-1.6-6.9-4.2-13.7-6.2-20.2c-1.6-6.5-4.3-12.7-8-18.4   c-12.4-0.5-24.3,2-36.7,2.4c-4-0.2-7.9,0-11.8,0.6c0.2,3.9,0.7,7.7,1.7,11.4c1.5,9.6,3.2,19.7,4.7,29.8c0.3,1.9,1,3.7,1.3,5.5   c0.5,3.3,0.7,6.6,1.3,10c1.6,9.6,2.8,19.6,4.3,29.4c2.6,16.2,5.4,32.4,7.6,48.4c0.9,6.4,2,12.7,2.8,19.1c1,8.4,2.3,17.2,3.6,26   c0.6,4.5,2.2,9.9,2.9,14.9c1.2,6.4,1.8,12.9,2,19.5c-2.1-3.2-3.7-6.7-4.7-10.3c-7-17.7-13.7-36.4-20.6-54.5   c-2-5.4-4.3-10.5-6.3-16.2c-0.6-1.8-1.8-3.4-2.4-5.1c-0.5-1.3-0.6-2.5-1.1-3.6c-1.4-3.3-2.7-6.8-4-10.2c-1.7-4.6-3.5-9.2-5.1-13.8   c-2.4-6.8-5.4-13.4-8-20.4c-0.9-2.3-1.6-4.7-2.4-7.1c-0.6-1.8-1.7-3.6-2.4-5.4c-4.1-11.1-8.4-21.8-12.7-33.1   c-1.8-4.8-2.3-7,0.6-11.1c2.1-2.6,4.5-5,7.1-7c2.4-2.3,5-4.4,7.6-6.4c2.8-1.9,5.8-3.5,8.7-5.2c9.4-5,19.4-9,29.6-12   c13.9-4.6,27.9-8.5,41.5-13.8c6.8-2.6,14-4.3,20.3-7.1c2.2-1,3.3,2.5,4.2,4.1c2.7,5.1,4.8,11,7.3,15.6c2.6,5.1,5,9.9,7.8,15.3   C142.4,240.1,143.2,241.9,143.7,243.7"
   style="fill:#231f1c;fill-opacity:1" />
	<path
   id="Pfad_9"
   class="st0"
   d="M381.8,250.4c0.1-1.9-0.2-3.9-0.2-5.8c0.4-8.3-0.5-16.7-2.9-24.7c-1.8-6.8-5-13.1-9.4-18.6   c-2.9-1.2-6.1-3.6-9.9-5.1c-2.4-0.9-5.6-1.3-8.5-2.2s-5.8-1.9-8.3-2.5c-1.2-0.3-2.7-0.2-3.9-0.5c-0.9-0.3-1.7-1-2.5-1.3   c-2.4-0.9-5.6-1.2-8.5-2c-2.5-0.7-7-2.3-7.6-3.6c-0.5-1.8-0.7-3.7-0.8-5.6c-0.4-4.1-1.1-7.5-1.6-11.1c-0.3-1.9-0.3-3.8-0.7-5.2   c-1.9-4.8-4.2-9.5-6.8-14c-2.6-6.2-6.3-12-10.7-17.1c-2.4-2.6-5.2-4.8-8.2-6.6c-1.6-1.1-3.3-2-5.1-2.7c-4.6-1.9-9.4-3.9-14-5.5   c-3.8-1.1-7.8-1.3-11.7-0.7c-11.1,3-21.5,8.4-30.2,16c-1.3,1.1-2.7,1.9-4,2.9c-6.3,5.2-12.5,10.9-18.2,16.4   c-5.1,8.3-12.6,16.8-14.7,28.7c-0.3,2-0.2,4.6-0.5,6.9c-0.4,2.3-0.7,4.6-0.8,6.9c0.1,2.2,0.8,6.5,1.1,8.5c0.5,3.8-0.1,7.6,0.5,11.6   s0.8,7.7,1.3,11.5c2.1,13.5,4.5,26.7,6.4,40.5c0.6,4.8,1.1,9.6,2,14.4c0.4,2.4,1.2,4.7,1.5,6.9c0,3.3,0.5,6.7,1.6,9.8   c1.3,1.9,4.4,2.1,7.4,2.4c8.7,0.8,16.9,2,26,2.1c2.1,0.1,6.4,1.1,7.7,0c1-0.8,0.7-3.5,1-6c0.5-3,0.8-6.5,1.3-9.9   c0.3-2.5,0.7-5.2,0.9-7.8c0.1-1.4-0.1-3,0-4.5c0.2-1.7,0.8-3.6,1.1-5.8s0.1-4.6,0.3-6.7c0.2-1.5,1-2.8,1.1-4s-0.3-2.1-0.2-3.5   c0.1-1,0.6-1.9,0.8-3c0.5-4,0.7-8.3,1.1-12.5s1.1-8.4,1.4-12.3c-0.3-2.8,0.1-5.6,1.3-8.2c4.8-0.1,10.1,1.8,15.6,2   c3.6,0.1,7.6,0,10.9,0c2.3,0,8.3-0.8,9.5,0.7c0.4,1.4,0.4,2.9,0,4.4c-0.3,1.9-0.1,3.3-0.2,4.6c-0.2,2.1-0.9,4.5-1.3,6.9   c-1,7.3-0.8,15.9-2.7,22.1c0.8,1.9-0.1,3.2-0.4,4.9c-0.2,1.2,0,2.4-0.2,3.4c-0.9,7.7-1.8,14.4-2.8,21.5c-1.2,5.1-1.5,10.3-0.7,15.5   c8.3,0.8,16.6,0.8,24.9,0.2c11.4-0.7,23.5-0.8,32.5-4c2.5-0.9,5.3-1.5,7.8-2.5c5.3-2.1,10.7-3.7,14.9-5.8c2.6-1.4,3.3-2.9,5.3-5.5   c1.2-1.5,2.3-3.1,3.3-4.7c2.8-5,6.8-9.3,7.3-15.8c0.2-3.3-0.5-6.9-0.4-10.2C381.3,253,381.8,251.7,381.8,250.4 M293.5,197.6   c-0.3,0.8-1.1,1.5-1.5,2.4c-0.7,1.7-0.8,3.8-2.2,5.1c-6.9,1-10.9-3-16.9-4c-1.9-1.9-6.4-1.8-6.7-4.9c-0.1-1.2,1-2.7,1.4-4.1   c0.6-1.8,1-4.2,1.8-6.4c0.6-2.1,1.3-4.1,2.2-6c3.4-0.6,9.6,1.6,13.5,2.4c2.3,0.4,4.2,0.4,5.3,1.8c0.9,1.7,1.6,3.5,2,5.4   C293.3,192.2,294.9,194,293.5,197.6"
   style="fill:#e0332c;fill-opacity:1" />
</g>
<g
   id="Ostschweizer_Verein_für_das_"
   style="fill:#231f1c;fill-opacity:1">
	<g
   class="st1"
   id="g860"
   style="fill:#231f1c;fill-opacity:1">
		<path
   class="st0"
   d="M24.8,1.9c13.5,0,23.3,9.6,23.3,23.1s-9.8,23.1-23.3,23.1C11.4,48.1,1.5,38.5,1.5,25S11.4,1.9,24.8,1.9z     M24.8,10.3c-8.2,0-13.5,6.3-13.5,14.6s5.3,14.6,13.5,14.6s13.6-6.4,13.6-14.6C38.4,16.6,33,10.3,24.8,10.3z"
   id="path836"
   style="fill:#231f1c;fill-opacity:1" />
		<path
   class="st0"
   d="M55.5,37c2.3,2.2,7.2,4.4,11.2,4.4c3.7,0,5.4-1.3,5.4-3.3c0-2.3-2.8-3.1-6.5-3.8c-5.5-1.1-12.7-2.4-12.7-10.1    c0-5.4,4.7-10.2,13.2-10.2c5.5,0,9.8,1.9,13,4.4l-3.4,5.8c-1.9-2.1-5.6-3.7-9.6-3.7c-3.1,0-5.1,1.1-5.1,3c0,2,2.5,2.7,6.2,3.5    c5.5,1.1,13,2.5,13,10.6c0,5.9-5,10.4-14,10.4c-5.6,0-11-1.9-14.4-5L55.5,37z"
   id="path838"
   style="fill:#231f1c;fill-opacity:1" />
		<path
   class="st0"
   d="M88.2,39.2V22.4h-5.3V15h5.3V6.2h8.6V15h6.6v7.4h-6.6V37c0,2,1.1,3.5,2.9,3.5c1.3,0,2.5-0.5,2.9-0.9l1.8,6.4    c-1.3,1.1-3.5,2.1-7.1,2.1C91.4,48,88.2,44.9,88.2,39.2z"
   id="path840"
   style="fill:#231f1c;fill-opacity:1" />
		<path
   class="st0"
   d="M110,37c2.3,2.2,7.2,4.4,11.2,4.4c3.7,0,5.4-1.3,5.4-3.3c0-2.3-2.8-3.1-6.5-3.8c-5.5-1.1-12.7-2.4-12.7-10.1    c0-5.4,4.7-10.2,13.2-10.2c5.5,0,9.8,1.9,13,4.4l-3.4,5.8c-1.9-2.1-5.6-3.7-9.6-3.7c-3.1,0-5.1,1.1-5.1,3c0,2,2.5,2.7,6.2,3.5    c5.5,1.1,13,2.5,13,10.6c0,5.9-5,10.4-14,10.4c-5.6,0-11-1.9-14.4-5L110,37z"
   id="path842"
   style="fill:#231f1c;fill-opacity:1" />
		<path
   class="st0"
   d="M156.1,14.1c6.6,0,10.6,2.9,12.8,5.8l-5.5,5.2c-1.5-2.3-3.9-3.5-6.8-3.5c-5.1,0-8.8,3.7-8.8,9.4    c0,5.6,3.6,9.4,8.8,9.4c2.9,0,5.3-1.3,6.8-3.5l5.5,5.1c-2.1,3-6.2,5.9-12.8,5.9c-10,0-17.1-7-17.1-17    C139,21.1,146.1,14.1,156.1,14.1z"
   id="path844"
   style="fill:#231f1c;fill-opacity:1" />
		<path
   class="st0"
   d="M196.3,27.5c0-4.5-2.3-5.9-6-5.9c-3.3,0-5.9,1.9-7.4,3.8v21.8h-8.5V2.6h8.5v16.5c2.1-2.5,6.1-5,11.4-5    c7.1,0,10.5,3.9,10.5,10.2v22.9h-8.5V27.5z"
   id="path846"
   style="fill:#231f1c;fill-opacity:1" />
		<path
   class="st0"
   d="M234.7,25.2l-6.8,22h-9.1L209,14.9h8.8l6,21.7l7.1-21.7h7.6l7.1,21.7l6-21.7h8.8l-9.8,32.3h-9L234.7,25.2z"
   id="path848"
   style="fill:#231f1c;fill-opacity:1" />
		<path
   class="st0"
   d="M279.3,14.1c9.6,0,16.2,7.2,16.2,17.8v1.9h-24c0.5,4.1,3.8,7.5,9.3,7.5c3,0,6.6-1.2,8.6-3.2l3.7,5.5    c-3.2,2.9-8.3,4.5-13.3,4.5c-9.8,0-17.3-6.6-17.3-17C262.5,21.6,269.4,14.1,279.3,14.1z M271.3,28h15.9c-0.2-3.1-2.3-7.2-8-7.2    C274,20.8,271.7,24.8,271.3,28z"
   id="path850"
   style="fill:#231f1c;fill-opacity:1" />
		<path
   class="st0"
   d="M300.7,5.1c0-2.8,2.3-5.1,5.1-5.1c2.8,0,5.1,2.3,5.1,5.1s-2.3,5.1-5.1,5.1C303.1,10.1,300.7,7.9,300.7,5.1z     M301.6,14.9h8.5v32.3h-8.5V14.9z"
   id="path852"
   style="fill:#231f1c;fill-opacity:1" />
		<path
   class="st0"
   d="M317.1,40.8l14.6-18.5h-14.6v-7.4h26.1v6.2l-14.8,18.7h15v7.4h-26.3L317.1,40.8L317.1,40.8z"
   id="path854"
   style="fill:#231f1c;fill-opacity:1" />
		<path
   class="st0"
   d="M365.2,14.1c9.6,0,16.2,7.2,16.2,17.8v1.9h-24c0.5,4.1,3.8,7.5,9.3,7.5c3,0,6.6-1.2,8.6-3.2l3.7,5.5    c-3.2,2.9-8.3,4.5-13.3,4.5c-9.8,0-17.3-6.6-17.3-17C348.5,21.6,355.4,14.1,365.2,14.1z M357.2,28h15.9c-0.2-3.1-2.3-7.2-8-7.2    C359.9,20.8,357.6,24.8,357.2,28z"
   id="path856"
   style="fill:#231f1c;fill-opacity:1" />
		<path
   class="st0"
   d="M387.5,14.9h8.5v4.4c2.3-2.9,6.3-5.1,10.3-5.1v8.3c-0.6-0.1-1.4-0.3-2.3-0.3c-2.8,0-6.6,1.6-8,3.7v21.3h-8.5    V14.9z"
   id="path858"
   style="fill:#231f1c;fill-opacity:1" />
	</g>
	<g
   class="st1"
   id="g864"
   style="fill:#231f1c;fill-opacity:1">
		<path
   class="st0"
   d="M424.2,2.6H435l12.4,34.3l12.3-34.3h10.8l-17.2,44.6h-11.9L424.2,2.6z"
   id="path862"
   style="fill:#231f1c;fill-opacity:1" />
	</g>
	<g
   class="st1"
   id="g876"
   style="fill:#231f1c;fill-opacity:1">
		<path
   class="st0"
   d="M485.1,14.1c9.6,0,16.2,7.2,16.2,17.8v1.9h-24c0.5,4.1,3.8,7.5,9.3,7.5c3,0,6.6-1.2,8.6-3.2l3.7,5.5    c-3.2,2.9-8.3,4.5-13.3,4.5c-9.8,0-17.3-6.6-17.3-17C468.4,21.6,475.2,14.1,485.1,14.1z M477.1,28H493c-0.2-3.1-2.3-7.2-8-7.2    C479.8,20.8,477.5,24.8,477.1,28z"
   id="path866"
   style="fill:#231f1c;fill-opacity:1" />
		<path
   class="st0"
   d="M507.4,14.9h8.5v4.4c2.3-2.9,6.3-5.1,10.3-5.1v8.3c-0.6-0.1-1.4-0.3-2.3-0.3c-2.8,0-6.6,1.6-8,3.7v21.3h-8.5    V14.9z"
   id="path868"
   style="fill:#231f1c;fill-opacity:1" />
		<path
   class="st0"
   d="M546.1,14.1c9.6,0,16.2,7.2,16.2,17.8v1.9h-24c0.5,4.1,3.8,7.5,9.3,7.5c3,0,6.6-1.2,8.6-3.2l3.7,5.5    c-3.2,2.9-8.3,4.5-13.3,4.5c-9.8,0-17.3-6.6-17.3-17C529.4,21.6,536.3,14.1,546.1,14.1z M538.2,28h15.9c-0.2-3.1-2.3-7.2-8-7.2    C540.8,20.8,538.6,24.8,538.2,28z"
   id="path870"
   style="fill:#231f1c;fill-opacity:1" />
		<path
   class="st0"
   d="M567.6,5.1c0-2.8,2.3-5.1,5.1-5.1s5.1,2.3,5.1,5.1s-2.3,5.1-5.1,5.1C569.9,10.1,567.6,7.9,567.6,5.1z     M568.5,14.9h8.5v32.3h-8.5V14.9z"
   id="path872"
   style="fill:#231f1c;fill-opacity:1" />
		<path
   class="st0"
   d="M607.2,27.7c0-4.5-2.3-6-6-6c-3.3,0-6,1.9-7.4,3.8v21.7h-8.5V14.9h8.5v4.2c2.1-2.5,6-5,11.3-5    c7.1,0,10.5,4,10.5,10.3v22.8h-8.5V27.7H607.2z"
   id="path874"
   style="fill:#231f1c;fill-opacity:1" />
	</g>
	<g
   class="st1"
   id="g890"
   style="fill:#231f1c;fill-opacity:1">
		<path
   class="st0"
   d="M5.4,98.7H0v-7.4h5.3v-1.7c0-7,4.5-11.2,10.9-11.2c2.4,0,4.6,0.5,6.2,1.3l-1.7,6C20,85.2,19,85,18,85    c-2.4,0-4,1.6-4,4.7v1.6h6.6v7.4H14v24.9H5.4C5.4,123.6,5.4,98.7,5.4,98.7z"
   id="path878"
   style="fill:#231f1c;fill-opacity:1" />
		<path
   class="st0"
   d="M47.2,119.5c-2.2,2.5-6.1,4.9-11.4,4.9c-7.1,0-10.4-3.9-10.4-10.2V91.3h8.5v19.6c0,4.5,2.3,6,6,6    c3.3,0,5.9-1.8,7.4-3.7V91.3h8.5v32.3h-8.5L47.2,119.5L47.2,119.5z M28.9,82c0-2.5,2-4.5,4.5-4.5s4.5,2,4.5,4.5s-2,4.5-4.5,4.5    S28.9,84.5,28.9,82z M43,82c0-2.5,2.1-4.5,4.5-4.5c2.5,0,4.5,2,4.5,4.5s-2.1,4.5-4.5,4.5C45.1,86.5,43,84.5,43,82z"
   id="path880"
   style="fill:#231f1c;fill-opacity:1" />
		<path
   class="st0"
   d="M64.1,91.3h8.5v4.4c2.3-2.9,6.3-5.1,10.3-5.1v8.3c-0.6-0.1-1.4-0.3-2.3-0.3c-2.8,0-6.6,1.6-8,3.7v21.3h-8.5    V91.3z"
   id="path882"
   style="fill:#231f1c;fill-opacity:1" />
		<path
   class="st0"
   d="M127.5,119.5c-2.5,3.2-6.1,4.9-10,4.9c-8.2,0-14.3-6.2-14.3-16.9c0-10.6,6.1-17,14.3-17c3.8,0,7.4,1.7,10,4.9    V79h8.6v44.6h-8.6V119.5z M127.5,101.7c-1.4-2.1-4.5-3.7-7.4-3.7c-4.8,0-8.2,3.8-8.2,9.4c0,5.5,3.3,9.4,8.2,9.4    c2.9,0,6-1.5,7.4-3.7V101.7z"
   id="path884"
   style="fill:#231f1c;fill-opacity:1" />
		<path
   class="st0"
   d="M163.8,120.3c-2.2,2.6-6,4.1-10.2,4.1c-5.1,0-11.2-3.5-11.2-10.7c0-7.6,6.1-10.3,11.2-10.3    c4.3,0,8.1,1.3,10.2,3.9v-4.5c0-3.3-2.8-5.4-7.1-5.4c-3.5,0-6.7,1.3-9.4,3.8l-3.2-5.7c3.9-3.5,9-5.1,14.1-5.1    c7.4,0,14.1,2.9,14.1,12.2v20.9h-8.5L163.8,120.3L163.8,120.3z M163.8,111.8c-1.4-1.9-4.1-2.8-6.8-2.8c-3.3,0-6.1,1.7-6.1,4.9    c0,3,2.7,4.7,6.1,4.7c2.7,0,5.4-0.9,6.8-2.8V111.8z"
   id="path886"
   style="fill:#231f1c;fill-opacity:1" />
		<path
   class="st0"
   d="M181.6,113.4c2.3,2.2,7.2,4.4,11.2,4.4c3.7,0,5.4-1.3,5.4-3.3c0-2.3-2.8-3.1-6.5-3.8    c-5.5-1.1-12.7-2.4-12.7-10.1c0-5.4,4.7-10.2,13.2-10.2c5.5,0,9.8,1.9,13,4.4l-3.4,5.8c-1.9-2.1-5.6-3.7-9.6-3.7    c-3.1,0-5.1,1.1-5.1,3c0,2,2.5,2.7,6.2,3.5c5.5,1.1,13,2.5,13,10.6c0,5.9-5,10.4-14,10.4c-5.6,0-11-1.9-14.4-5L181.6,113.4z"
   id="path888"
   style="fill:#231f1c;fill-opacity:1" />
	</g>
</g>
</svg>
