<svg xmlns="http://www.w3.org/2000/svg" version="1.1" xmlns:xlink="http://www.w3.org/1999/xlink" xmlns:svgjs="http://svgjs.dev/svgjs" width="1000" height="1000"><g clip-path="url(#SvgjsClipPath1051)"><rect width="1000" height="1000" fill="#ffffff"></rect><g transform="matrix(4.704406460718206,0,0,4.704406460718206,50,347.01270189744395)"><svg xmlns="http://www.w3.org/2000/svg" version="1.1" xmlns:xlink="http://www.w3.org/1999/xlink" xmlns:svgjs="http://svgjs.dev/svgjs" width="191.31" height="65.04"><svg id="Ebene_1" xmlns="http://www.w3.org/2000/svg" viewBox="0 0 191.31 65.04"><defs><style>.cls-1{fill:#e32f32;}.cls-1,.cls-2,.cls-3{stroke-width:0px;}.cls-2{fill:#57b1dd;}.cls-3{fill:#6d609f;}</style><clipPath id="SvgjsClipPath1051"><rect width="1000" height="1000" x="0" y="0" rx="100" ry="100"></rect></clipPath></defs><rect class="cls-3" x="80.56" y="50.43" width="106.07" height=".45"></rect><path class="cls-2" d="M6.43,36.06c.72,5.44,6.61,9.14,13.15,8.27,6.54-.87,11.26-5.98,10.54-11.42-.72-5.44-6.61-9.14-13.15-8.27s-11.26,5.98-10.54,11.42"></path><path class="cls-3" d="M51.86,27.49c-3.51.29-6.95,1.55-9.81,3.64-3.66,2.68-6.34,6.39-9.44,9.65-3.47,3.64-7.54,6.43-12.63,7.05-4.26.54-8.81-.4-12.3-2.96-4.2-2.75-4.98-7.83-4.95-12.46-.18-.52-.91-.66-1.13-.09-2.3,5.89-2.1,12.5.44,18.28,4.69,11.49,18.81,18.07,30.23,12.33,5.57-2.57,8.98-7.92,14.33-10.78,7.63-4.07,16.51-1.24,22.39,4.82,4.67,4.82,3.89-6.64,3.59-8.99-1.18-9.25-5.62-17.29-13.92-19.8-2.21-.67-4.51-.89-6.79-.7"></path><path class="cls-3" d="M55.34,10.45c1.63,7.37-3.72,14.82-11.96,16.65-8.24,1.82-16.23-2.67-17.86-10.05S29.24,2.23,37.48.4c8.24-1.82,16.23,2.68,17.86,10.05"></path><path class="cls-1" d="M63.74,6.48h3.79v1.85h.09c.96-1.3,2.34-2.26,4.37-2.26,3.94,0,6.46,3.21,6.46,7.84s-2.61,7.84-6.43,7.84c-2.08,0-3.44-.84-4.28-2.11h-.06v6.54h-3.94V6.48h0ZM74.45,14.03c0-2.81-.98-4.77-3.42-4.77s-3.44,2.11-3.44,4.77,1.25,4.46,3.59,4.46c2,0,3.27-1.65,3.27-4.46"></path><path class="cls-1" d="M89.15,19.68h-.06c-.75,1.13-1.82,2-4.37,2-3.04,0-5.18-1.59-5.18-4.54,0-3.27,2.66-4.31,5.96-4.78,2.46-.35,3.59-.55,3.59-1.68,0-1.07-.84-1.77-2.49-1.77-1.85,0-2.75.67-2.86,2.08h-3.5c.12-2.6,2.06-4.89,6.4-4.89s6.25,2,6.25,5.47v7.55c0,1.13.17,1.8.52,2.06v.15h-3.79c-.23-.29-.38-.98-.46-1.65M89.18,16.09v-2.23c-.69.41-1.77.64-2.75.87-2.06.46-3.07.93-3.07,2.32s.93,1.88,2.32,1.88c2.26,0,3.5-1.39,3.5-2.84"></path><path class="cls-1" d="M99.51,8.17h.09c.9-1.68,2.42-1.86,3.65-1.86.43,0,.69.03.93.12v3.44h-.09c-2.58-.26-4.43,1.1-4.43,4.23v7.24h-3.94V6.48h3.79v1.69Z"></path><path class="cls-1" d="M104.03,13.89c0-4.4,2.98-7.82,7.32-7.82,4.78,0,7.32,3.65,7.32,8.94h-10.77c.29,2.29,1.56,3.7,3.79,3.7,1.53,0,2.43-.69,2.86-1.82h3.88c-.55,2.63-2.89,4.86-6.72,4.86-4.92,0-7.7-3.44-7.7-7.87M107.97,12.3h6.6c-.12-1.88-1.36-3.18-3.15-3.18-2.08,0-3.1,1.24-3.44,3.18"></path><path class="cls-1" d="M124,8.51h.09c1.01-1.59,2.37-2.43,4.4-2.43,3.07,0,5.12,2.31,5.12,5.56v9.7h-3.94v-9.12c0-1.59-.93-2.72-2.58-2.72-1.74,0-3.01,1.39-3.01,3.41v8.42h-3.94V6.48h3.85v2.03h.01Z"></path><path class="cls-1" d="M135.23,6.48h1.37v-3.94h3.85v3.94h2.55v2.61h-2.55v7.87c0,1.1.61,1.48,1.48,1.48.49,0,1.16-.03,1.16-.03v2.89s-.9.06-2.46.06c-1.91,0-4.02-.75-4.02-3.56v-8.71h-1.37v-2.6h0l-.01-.01Z"></path><path class="cls-1" d="M144.24,16.52h3.65c.26,1.71,1.48,2.46,3.24,2.46s2.72-.67,2.72-1.71c0-1.42-1.88-1.56-3.91-1.97-2.66-.52-5.27-1.25-5.27-4.49s2.66-4.75,6.05-4.75c3.91,0,6.08,1.94,6.37,4.92h-3.56c-.17-1.59-1.19-2.17-2.87-2.17-1.53,0-2.55.58-2.55,1.65,0,1.27,1.97,1.39,4.08,1.82,2.49.52,5.24,1.21,5.24,4.69,0,2.98-2.55,4.78-6.25,4.78-4.31,0-6.71-2.08-6.95-5.24"></path><path class="cls-2" d="M169.72,12.84c-.3.23-.79.41-1.24.58-.94.34-1.39.62-1.3,1.28.09.66.55.83,1.21.74,1.06-.14,1.57-.87,1.48-1.55h-.01l-.14-1.05Z"></path><path class="cls-2" d="M183.99,11.65c-.44-5.32-6-9.21-12.4-8.68-6.41.53-11.24,5.28-10.8,10.61.44,5.33,6,9.21,12.4,8.68,6.41-.53,11.24-5.28,10.8-10.61ZM172.16,16.1l-1.78.23c-.13-.12-.24-.44-.32-.75h-.02c-.29.58-.74,1.06-1.94,1.21-1.43.19-2.54-.43-2.72-1.82-.2-1.54.99-2.19,2.52-2.62,1.14-.31,1.66-.48,1.59-1.01-.07-.51-.5-.78-1.28-.68-.87.11-1.26.48-1.22,1.16l-1.65.22c-.11-1.23.67-2.43,2.71-2.7,2.1-.27,3.07.56,3.28,2.19l.46,3.56c.07.53.19.83.37.94v.07ZM176.76,15.81c-2.03.26-3.29-.57-3.59-2.04h-.02l1.72-.22c.23.79.85,1.07,1.68.96.82-.11,1.24-.48,1.18-.97-.09-.67-.98-.62-1.96-.69-1.29-.08-2.56-.26-2.76-1.79-.2-1.51.96-2.4,2.56-2.61,1.84-.24,2.98.54,3.3,1.93l-1.68.22c-.18-.74-.69-.95-1.48-.85-.72.09-1.16.43-1.1.93.08.6,1.01.53,2.04.61,1.2.09,2.54.25,2.76,1.89.18,1.41-.91,2.41-2.65,2.63Z"></path><path class="cls-1" d="M168.66,31.05h.09c.9-1.68,2.42-1.86,3.65-1.86.43,0,.7.03.93.12v3.44h-.09c-2.58-.26-4.43,1.1-4.43,4.23v7.24h-3.94v-14.85h3.79v1.69-.01Z"></path><path class="cls-1" d="M79.2,29.38h1.37v-3.94h3.85v3.94h2.55v2.6h-2.55v7.87c0,1.1.61,1.48,1.48,1.48.49,0,1.16-.03,1.16-.03v2.89s-.9.06-2.46.06c-1.91,0-4.02-.75-4.02-3.56v-8.71h-1.37v-2.6h-.01Z"></path><path class="cls-1" d="M87.77,36.78c0-4.4,2.98-7.82,7.32-7.82,4.78,0,7.32,3.65,7.32,8.94h-10.77c.29,2.29,1.56,3.71,3.79,3.71,1.53,0,2.43-.69,2.86-1.82h3.88c-.55,2.63-2.89,4.86-6.71,4.86-4.92,0-7.7-3.44-7.7-7.87M91.71,35.19h6.6c-.12-1.88-1.36-3.18-3.15-3.18-2.08,0-3.1,1.24-3.44,3.18"></path><path class="cls-1" d="M113.13,42.57h-.06c-.75,1.13-1.82,2-4.37,2-3.04,0-5.18-1.59-5.18-4.54,0-3.27,2.66-4.31,5.96-4.78,2.46-.35,3.59-.55,3.59-1.68,0-1.07-.84-1.76-2.49-1.76-1.85,0-2.75.67-2.86,2.08h-3.5c.12-2.6,2.06-4.89,6.4-4.89s6.25,2,6.25,5.47v7.55c0,1.13.17,1.79.52,2.06v.15h-3.79c-.23-.29-.38-.98-.46-1.65M113.16,38.98v-2.23c-.69.4-1.77.64-2.75.87-2.06.46-3.07.93-3.07,2.32s.93,1.88,2.32,1.88c2.26,0,3.5-1.39,3.5-2.84"></path><path class="cls-1" d="M118.28,36.81c0-4.43,2.89-7.84,7.41-7.84,3.85,0,6.22,2.23,6.74,5.44h-3.85c-.26-1.3-1.27-2.29-2.72-2.29-2.37,0-3.59,1.82-3.59,4.69s1.13,4.69,3.53,4.69c1.59,0,2.72-.84,2.98-2.52h3.79c-.26,3.15-2.72,5.67-6.69,5.67-4.69,0-7.61-3.42-7.61-7.84"></path><path class="cls-1" d="M137.88,31.31h.09c1.07-1.56,2.29-2.34,4.31-2.34,3.07,0,5.12,2.32,5.12,5.56v9.7h-3.94v-9.12c0-1.59-.93-2.72-2.58-2.72-1.74,0-3.01,1.39-3.01,3.42v8.42h-3.94v-20.01h3.94v7.1h0l.01-.01Z"></path><path class="cls-1" d="M148.76,36.78c0-4.4,2.98-7.82,7.32-7.82,4.78,0,7.32,3.65,7.32,8.94h-10.77c.29,2.29,1.56,3.71,3.79,3.71,1.53,0,2.43-.69,2.87-1.82h3.88c-.55,2.63-2.9,4.86-6.71,4.86-4.92,0-7.7-3.44-7.7-7.87M152.7,35.19h6.6c-.12-1.88-1.36-3.18-3.15-3.18-2.08,0-3.1,1.24-3.44,3.18"></path><path class="cls-1" d="M173.43,39.42h3.65c.26,1.71,1.48,2.46,3.24,2.46s2.72-.67,2.72-1.71c0-1.42-1.88-1.56-3.91-1.97-2.66-.52-5.27-1.24-5.27-4.49s2.66-4.75,6.05-4.75c3.91,0,6.08,1.94,6.37,4.92h-3.56c-.17-1.59-1.19-2.17-2.87-2.17-1.53,0-2.55.58-2.55,1.65,0,1.27,1.97,1.39,4.08,1.82,2.49.52,5.24,1.22,5.24,4.69,0,2.98-2.55,4.78-6.25,4.78-4.31,0-6.71-2.08-6.95-5.24"></path><path class="cls-1" d="M187.62,32.06c0-1.07.81-1.87,1.84-1.87s1.84.79,1.84,1.87-.81,1.87-1.84,1.87-1.84-.79-1.84-1.87M190.97,32.06c0-.9-.63-1.57-1.5-1.57s-1.5.67-1.5,1.57.64,1.58,1.5,1.58,1.5-.67,1.5-1.58M188.68,31.06h.96c.39,0,.71.21.71.58,0,.22-.12.39-.34.47v.02c.18.05.26.17.29.35.05.25.02.48.09.52v.04h-.52c-.05-.03-.06-.26-.09-.46-.02-.18-.12-.26-.31-.26h-.26v.72h-.53v-1.97h0v-.01ZM189.21,31.93h.33c.18,0,.28-.08.28-.22s-.09-.22-.28-.22h-.33v.45h0v-.01Z"></path><path class="cls-3" d="M74.78,56.41h.29c.16,0,.25-.07.25-.2s-.07-.2-.25-.2h-.29v.4ZM74.31,55.64h.84c.34,0,.63.18.63.51,0,.2-.1.35-.3.42h0c.16.06.22.16.26.33.04.22.01.42.08.46v.03h-.46s-.05-.23-.07-.4c-.01-.16-.1-.23-.27-.23h-.23v.63h-.47v-1.74l-.01-.01ZM76.33,56.52c0-.8-.56-1.39-1.33-1.39s-1.33.59-1.33,1.39.56,1.4,1.33,1.4,1.33-.59,1.33-1.4M73.37,56.52c0-.95.71-1.65,1.63-1.65s1.63.7,1.63,1.65-.71,1.65-1.63,1.65-1.63-.7-1.63-1.65"></path><path class="cls-3" d="M80.14,58.73h1.22c.06.57.44.83,1.12.83.47,0,.91-.19.91-.62,0-.46-.45-.56-1.21-.74-1.03-.23-1.86-.49-1.86-1.59s.89-1.59,2.05-1.59,1.98.54,2.06,1.57h-1.18c-.06-.41-.39-.65-.91-.65-.5,0-.83.21-.83.55,0,.41.45.5,1.28.69.95.21,1.82.52,1.82,1.64s-.92,1.7-2.12,1.7c-1.41,0-2.3-.65-2.34-1.79h-.01Z"></path><path class="cls-3" d="M85.07,58.52c0-1.13.77-2,1.95-2,1,0,1.63.57,1.76,1.4h-1.08c-.08-.35-.31-.57-.67-.57-.56,0-.84.46-.84,1.17s.28,1.15.84,1.15c.41,0,.66-.25.71-.68h1.07c-.04.86-.71,1.52-1.76,1.52-1.2,0-1.98-.87-1.98-2v.01Z"></path><path class="cls-3" d="M90.43,57.17h.02c.23-.4.61-.65,1.13-.65.83,0,1.31.55,1.31,1.4v2.48h-1.1v-2.27c0-.41-.22-.69-.63-.69-.43,0-.72.35-.72.83v2.12h-1.11v-5.27h1.11v2.04h0l-.01.01Z"></path><path class="cls-3" d="M93.21,56.63h1.13l.4,1.47c.12.45.22,1.17.22,1.17h.01s.12-.73.24-1.18l.38-1.45h.94l.4,1.45c.13.45.25,1.19.25,1.19h.01s.1-.72.23-1.17l.4-1.47h1.1l-1.17,3.77h-1.05l-.4-1.54c-.11-.42-.23-1.15-.23-1.15h-.01s-.14.72-.25,1.15l-.41,1.54h-1.03l-1.16-3.77h0v-.01Z"></path><path class="cls-3" d="M99.03,58.52c0-1.13.79-2,1.93-2,.54,0,.96.18,1.3.48.43.41.62,1.05.61,1.79h-2.75c.07.57.38.91.91.91.35,0,.57-.13.69-.37h1.08c-.19.67-.81,1.17-1.78,1.17-1.23,0-1.99-.86-1.99-1.99h0v.01ZM100.13,58.15h1.61c-.04-.52-.33-.84-.77-.84-.51,0-.76.33-.83.84h-.01Z"></path><path class="cls-3" d="M103.42,55.13h1.12v.97h-1.12v-.97ZM103.42,56.63h1.11v3.77h-1.11v-3.77Z"></path><path class="cls-3" d="M105.16,59.57l1.35-1.52c.23-.25.63-.59.63-.59v-.02s-.5.06-.81.06h-1v-.86h3.06v.8l-1.3,1.47c-.25.28-.71.65-.71.65v.02s.54-.05.88-.05h1.23v.87h-3.32v-.83h-.01Z"></path><path class="cls-3" d="M110.59,58.73h1.22c.06.57.44.83,1.12.83.47,0,.91-.19.91-.62,0-.46-.45-.56-1.21-.74-1.03-.23-1.86-.49-1.86-1.59s.89-1.59,2.05-1.59,1.98.54,2.06,1.57h-1.18c-.06-.41-.39-.65-.91-.65-.5,0-.83.21-.83.55,0,.41.45.5,1.28.69.95.21,1.82.52,1.82,1.64s-.92,1.7-2.12,1.7c-1.41,0-2.3-.65-2.34-1.79h-.01Z"></path><path class="cls-3" d="M118.11,60.4v-.54h-.02c-.28.44-.62.65-1.13.65-.86,0-1.32-.55-1.32-1.38v-2.49h1.11v2.28c0,.42.21.66.6.66.45,0,.72-.34.72-.81v-2.13h1.1v3.77s-1.06,0-1.05,0l-.01-.01Z"></path><path class="cls-3" d="M119.89,55.13h1.12v.97h-1.12v-.97ZM119.9,56.63h1.11v3.77h-1.11v-3.77Z"></path><path class="cls-3" d="M121.51,59.24h1.05c.06.35.33.55.76.55.4,0,.62-.16.62-.43,0-.34-.45-.38-.97-.48-.67-.13-1.35-.3-1.35-1.17,0-.77.7-1.18,1.59-1.18,1.05,0,1.57.45,1.67,1.11h-1.03c-.07-.27-.28-.4-.64-.4s-.56.14-.56.38c0,.28.41.33.93.42.67.12,1.44.3,1.44,1.25,0,.81-.72,1.24-1.7,1.24-1.09,0-1.75-.52-1.81-1.28h0v-.01Z"></path><path class="cls-3" d="M125.36,59.24h1.05c.06.35.33.55.76.55.4,0,.62-.16.62-.43,0-.34-.45-.38-.97-.48-.67-.13-1.35-.3-1.35-1.17,0-.77.7-1.18,1.59-1.18,1.05,0,1.57.45,1.67,1.11h-1.03c-.07-.27-.28-.4-.64-.4s-.56.14-.56.38c0,.28.41.33.93.42.67.12,1.44.3,1.44,1.25,0,.81-.72,1.24-1.7,1.24-1.09,0-1.75-.52-1.81-1.28h0v-.01Z"></path><path class="cls-3" d="M129.23,58.52c0-1.13.79-2,1.93-2,.54,0,.96.18,1.3.48.43.41.62,1.05.61,1.79h-2.75c.07.57.38.91.91.91.35,0,.57-.13.69-.37h1.08c-.19.67-.81,1.17-1.78,1.17-1.23,0-1.99-.86-1.99-1.99h0v.01ZM130.33,58.15h1.61c-.04-.52-.33-.84-.77-.84-.51,0-.76.33-.84.84h0Z"></path><path class="cls-3" d="M135.14,58.73h1.22c.06.57.44.83,1.12.83.47,0,.91-.19.91-.62,0-.46-.45-.56-1.21-.74-1.03-.23-1.86-.49-1.86-1.59s.89-1.59,2.05-1.59,1.98.54,2.06,1.57h-1.18c-.06-.41-.39-.65-.91-.65-.5,0-.83.21-.83.55,0,.41.45.5,1.28.69.95.21,1.82.52,1.82,1.64s-.92,1.7-2.12,1.7c-1.41,0-2.3-.65-2.34-1.79h-.01Z"></path><path class="cls-3" d="M139.74,56.63h1.15l.46,1.52c.16.5.3,1.32.3,1.32h.02s.14-.81.3-1.32l.47-1.52h1.12l-1.32,3.77h-1.2l-1.3-3.77h0Z"></path><path class="cls-3" d="M143.95,55.13h1.12v.97h-1.12v-.97ZM143.96,56.63h1.11v3.77h-1.11v-3.77Z"></path><path class="cls-3" d="M145.69,59.57l1.35-1.52c.23-.25.63-.59.63-.59v-.02s-.5.06-.81.06h-1v-.86h3.06v.8l-1.3,1.47c-.26.28-.71.65-.71.65v.02s.54-.05.88-.05h1.23v.87h-3.32v-.83h-.01Z"></path><path class="cls-3" d="M149.5,59.57l1.35-1.52c.23-.25.63-.59.63-.59v-.02s-.5.06-.81.06h-1v-.86h3.06v.8l-1.3,1.47c-.26.28-.71.65-.71.65v.02s.54-.05.88-.05h1.23v.87h-3.32v-.83h-.01Z"></path><path class="cls-3" d="M153.17,58.52c0-1.13.79-2,1.93-2,.54,0,.96.18,1.3.48.43.41.62,1.05.61,1.79h-2.75c.07.57.38.91.91.91.35,0,.57-.13.69-.37h1.08c-.19.67-.81,1.17-1.78,1.17-1.23,0-1.99-.86-1.99-1.99h0v.01ZM154.27,58.15h1.61c-.04-.52-.33-.84-.77-.84-.51,0-.76.33-.84.84h0Z"></path><path class="cls-3" d="M158.63,57.3h.02c.24-.52.58-.74,1.05-.74.1,0,.18,0,.23.03v.97h-.03c-.08-.01-.16-.02-.23-.02-.6,0-1,.37-1,1.1v1.75h-1.11v-3.77h1.07v.67h0v.01Z"></path><path class="cls-3" d="M162.68,59.94h-.01c-.25.35-.56.56-1.14.56-.74,0-1.29-.4-1.29-1.14,0-.83.66-1.05,1.48-1.15.67-.09.95-.2.95-.48s-.18-.45-.56-.45c-.43,0-.63.2-.66.49h-1.03c.03-.64.55-1.25,1.67-1.25.48,0,.82.07,1.08.23.39.23.57.62.57,1.13v1.93c0,.3.04.46.14.52v.06h-1.08c-.06-.08-.11-.25-.13-.46h0l.01.01ZM162.69,59.04v-.49c-.16.1-.4.16-.65.21-.49.1-.72.23-.72.55s.25.45.55.45c.5,0,.82-.31.82-.72h0Z"></path><path class="cls-3" d="M166.01,58.73h1.22c.06.57.44.83,1.12.83.47,0,.91-.19.91-.62,0-.46-.45-.56-1.21-.74-1.03-.23-1.86-.49-1.86-1.59s.89-1.59,2.05-1.59,1.98.54,2.06,1.57h-1.18c-.06-.41-.39-.65-.91-.65-.5,0-.83.21-.83.55,0,.41.45.5,1.28.69.95.21,1.82.52,1.82,1.64s-.92,1.7-2.12,1.7c-1.41,0-2.3-.65-2.34-1.79h-.01Z"></path><path class="cls-3" d="M170.61,56.63h1.15l.46,1.52c.15.5.3,1.32.3,1.32h.02s.14-.81.3-1.32l.48-1.52h1.12l-1.32,3.77h-1.2l-1.3-3.77h-.01Z"></path><path class="cls-3" d="M174.82,55.13h1.12v.97h-1.12v-.97ZM174.82,56.63h1.11v3.77h-1.11v-3.77Z"></path><path class="cls-3" d="M176.56,59.57l1.35-1.52c.23-.25.63-.59.63-.59v-.02s-.5.06-.81.06h-1v-.86h3.06v.8l-1.3,1.47c-.26.28-.71.65-.71.65v.02s.54-.05.88-.05h1.23v.87h-3.32v-.83h-.01Z"></path><path class="cls-3" d="M181.55,57.3h.02c.24-.52.58-.74,1.05-.74.1,0,.18,0,.23.03v.97h-.03c-.08-.01-.16-.02-.23-.02-.6,0-1,.37-1,1.1v1.75h-1.11v-3.77h1.07v.67h0v.01Z"></path><path class="cls-3" d="M185.59,59.94h-.01c-.25.35-.56.56-1.14.56-.74,0-1.29-.4-1.29-1.14,0-.83.66-1.05,1.48-1.15.67-.09.95-.2.95-.48s-.18-.45-.56-.45c-.43,0-.63.2-.66.49h-1.03c.03-.64.55-1.25,1.67-1.25.48,0,.82.07,1.08.23.39.23.57.62.57,1.13v1.93c0,.3.04.46.14.52v.06h-1.08c-.06-.08-.11-.25-.13-.46h0l.01.01ZM185.61,59.04v-.49c-.16.1-.4.16-.65.21-.49.1-.72.23-.72.55s.25.45.55.45c.5,0,.82-.31.82-.72h0Z"></path></svg></svg></g></g></svg>